<?xml version="1.0" encoding="utf-8"?>
<!-- Generator: Adobe Illustrator 16.0.0, SVG Export Plug-In . SVG Version: 6.00 Build 0)  -->
<!DOCTYPE svg PUBLIC "-//W3C//DTD SVG 1.1//EN" "http://www.w3.org/Graphics/SVG/1.1/DTD/svg11.dtd">
<svg version="1.1" id="Capa_1" xmlns="http://www.w3.org/2000/svg" xmlns:xlink="http://www.w3.org/1999/xlink" x="0px" y="0px"
	 width="151.318px" height="118.192px" viewBox="0 0 151.318 118.192" enable-background="new 0 0 151.318 118.192"
	 xml:space="preserve">
<g>
	<g>
		<g>
			<polygon fill="#2E3A4B" points="0,36.7 42.873,0 108.708,0 151.318,36.56 76.49,118.192 			"/>
			<g>
				<polygon fill="#2E3A4B" points="4.989,37.211 43.818,3.972 107.765,3.972 146.372,37.099 76.467,113.36 				"/>
				<path fill="#FFFFFF" d="M76.467,113.745l-0.187-0.208L4.614,37.194L43.718,3.711h64.145l0.068,0.061l38.816,33.307l-0.179,0.196
					L76.467,113.745z M5.37,37.23l71.097,75.747l69.536-75.853L107.675,4.233H43.917L5.37,37.23z"/>
			</g>
		</g>
		<g>
			<g>
				<g>
					<path fill="#FFFFFF" d="M75.525,66.126c-0.978,0-1.894-0.297-2.674-0.816c-1.189,1.14-2.756,2.403-4.499,3.625
						c4.7,3.932,7.251,8.754,7.251,18.711h0.013h0.004c0-10.37,1.893-15.096,6.461-19.081c-1.571-1.074-2.968-2.158-4.038-3.158
						C77.296,65.862,76.437,66.126,75.525,66.126z"/>
					<path fill="#FFFFFF" d="M70.25,60.675c-0.011-0.15-0.021-0.297-0.021-0.454c0-1.229,0.346-2.364,0.928-3.31
						c-2.867-0.826-5.376-2.42-7.234-4.528L43.278,41.98c-0.236,3.181,0.146,10.293,6.893,15.048
						c4.825,3.401,9.046,5.794,12.599,7.999c0.491-0.353,0.988-0.7,1.5-1.042C66.391,62.575,68.506,61.408,70.25,60.675z"/>
					<path fill="#FFFFFF" d="M107.928,41.919L87.396,52.268c-1.905,2.205-4.501,3.864-7.484,4.692
						c0.56,0.934,0.897,2.059,0.897,3.262c0,0.242-0.013,0.474-0.038,0.708c1.756,0.667,3.895,1.75,6.042,3.077
						c0.304,0.187,0.591,0.368,0.868,0.551c3.3-2.054,7.346-4.349,12.251-7.529C106.961,52.486,108.188,45.126,107.928,41.919z"/>
				</g>
				<g>
					<linearGradient id="SVGID_1_" gradientUnits="userSpaceOnUse" x1="88.0059" y1="44.1597" x2="110.6646" y2="44.1597">
						<stop  offset="0" style="stop-color:#EEEBE8"/>
						<stop  offset="0" style="stop-color:#E7E2DF"/>
						<stop  offset="0.0658" style="stop-color:#D7D2D0"/>
						<stop  offset="0.1916" style="stop-color:#AFABAD"/>
						<stop  offset="0.264" style="stop-color:#969397"/>
						<stop  offset="0.5225" style="stop-color:#F8F7F7"/>
						<stop  offset="0.5911" style="stop-color:#E7E5E6"/>
						<stop  offset="0.7227" style="stop-color:#BEBABC"/>
						<stop  offset="0.8764" style="stop-color:#8B868A"/>
						<stop  offset="1" style="stop-color:#DBDBDA"/>
						<stop  offset="1" style="stop-color:#B3B2B2"/>
					</linearGradient>
					<path fill="url(#SVGID_1_)" d="M89.79,47.974l20.875-10.704l-0.561,2.508L88.006,51.049
						C88.727,50.101,89.326,49.07,89.79,47.974z"/>
					<linearGradient id="SVGID_2_" gradientUnits="userSpaceOnUse" x1="90.0063" y1="40.2207" x2="112.4297" y2="40.2207">
						<stop  offset="0" style="stop-color:#EEEBE8"/>
						<stop  offset="0" style="stop-color:#E7E2DF"/>
						<stop  offset="0.0658" style="stop-color:#D7D2D0"/>
						<stop  offset="0.1916" style="stop-color:#AFABAD"/>
						<stop  offset="0.264" style="stop-color:#969397"/>
						<stop  offset="0.5225" style="stop-color:#F8F7F7"/>
						<stop  offset="0.5911" style="stop-color:#E7E5E6"/>
						<stop  offset="0.7227" style="stop-color:#BEBABC"/>
						<stop  offset="0.8764" style="stop-color:#8B868A"/>
						<stop  offset="1" style="stop-color:#DBDBDA"/>
						<stop  offset="1" style="stop-color:#B3B2B2"/>
					</linearGradient>
					<path fill="url(#SVGID_2_)" d="M90.576,44.799l21.854-11.195l-0.455,2.033l-21.968,11.2
						C90.245,46.176,90.44,45.498,90.576,44.799z"/>
					<linearGradient id="SVGID_3_" gradientUnits="userSpaceOnUse" x1="90.6572" y1="36.4531" x2="114.5215" y2="36.4531">
						<stop  offset="0" style="stop-color:#EEEBE8"/>
						<stop  offset="0" style="stop-color:#E7E2DF"/>
						<stop  offset="0.0658" style="stop-color:#D7D2D0"/>
						<stop  offset="0.1916" style="stop-color:#AFABAD"/>
						<stop  offset="0.264" style="stop-color:#969397"/>
						<stop  offset="0.5225" style="stop-color:#F8F7F7"/>
						<stop  offset="0.5911" style="stop-color:#E7E5E6"/>
						<stop  offset="0.7227" style="stop-color:#BEBABC"/>
						<stop  offset="0.8764" style="stop-color:#8B868A"/>
						<stop  offset="1" style="stop-color:#DBDBDA"/>
						<stop  offset="1" style="stop-color:#B3B2B2"/>
					</linearGradient>
					<path fill="url(#SVGID_3_)" d="M90.832,41.699c0-0.104-0.019-0.211-0.019-0.316l23.709-12.209l-0.604,2.711L90.657,43.733
						C90.759,43.069,90.832,42.392,90.832,41.699z"/>
				</g>
				<g>
					<linearGradient id="SVGID_4_" gradientUnits="userSpaceOnUse" x1="40.6509" y1="44.1597" x2="63.3184" y2="44.1597">
						<stop  offset="0" style="stop-color:#EEEBE8"/>
						<stop  offset="0" style="stop-color:#E7E2DF"/>
						<stop  offset="0.0658" style="stop-color:#D7D2D0"/>
						<stop  offset="0.1916" style="stop-color:#AFABAD"/>
						<stop  offset="0.264" style="stop-color:#969397"/>
						<stop  offset="0.5225" style="stop-color:#F8F7F7"/>
						<stop  offset="0.5911" style="stop-color:#E7E5E6"/>
						<stop  offset="0.7227" style="stop-color:#BEBABC"/>
						<stop  offset="0.8764" style="stop-color:#8B868A"/>
						<stop  offset="1" style="stop-color:#DBDBDA"/>
						<stop  offset="1" style="stop-color:#B3B2B2"/>
					</linearGradient>
					<path fill="url(#SVGID_4_)" d="M61.528,47.974L40.651,37.27l0.564,2.508l22.103,11.271
						C62.591,50.101,61.992,49.07,61.528,47.974z"/>
					<linearGradient id="SVGID_5_" gradientUnits="userSpaceOnUse" x1="38.8853" y1="40.2207" x2="61.311" y2="40.2207">
						<stop  offset="0" style="stop-color:#EEEBE8"/>
						<stop  offset="0" style="stop-color:#E7E2DF"/>
						<stop  offset="0.0658" style="stop-color:#D7D2D0"/>
						<stop  offset="0.1916" style="stop-color:#AFABAD"/>
						<stop  offset="0.264" style="stop-color:#969397"/>
						<stop  offset="0.5225" style="stop-color:#F8F7F7"/>
						<stop  offset="0.5911" style="stop-color:#E7E5E6"/>
						<stop  offset="0.7227" style="stop-color:#BEBABC"/>
						<stop  offset="0.8764" style="stop-color:#8B868A"/>
						<stop  offset="1" style="stop-color:#DBDBDA"/>
						<stop  offset="1" style="stop-color:#B3B2B2"/>
					</linearGradient>
					<path fill="url(#SVGID_5_)" d="M60.747,44.799L38.885,33.604l0.462,2.033l21.963,11.2
						C61.074,46.176,60.88,45.498,60.747,44.799z"/>
					<linearGradient id="SVGID_6_" gradientUnits="userSpaceOnUse" x1="36.7959" y1="36.4531" x2="60.6597" y2="36.4531">
						<stop  offset="0" style="stop-color:#EEEBE8"/>
						<stop  offset="0" style="stop-color:#E7E2DF"/>
						<stop  offset="0.0658" style="stop-color:#D7D2D0"/>
						<stop  offset="0.1916" style="stop-color:#AFABAD"/>
						<stop  offset="0.264" style="stop-color:#969397"/>
						<stop  offset="0.5225" style="stop-color:#F8F7F7"/>
						<stop  offset="0.5911" style="stop-color:#E7E5E6"/>
						<stop  offset="0.7227" style="stop-color:#BEBABC"/>
						<stop  offset="0.8764" style="stop-color:#8B868A"/>
						<stop  offset="1" style="stop-color:#DBDBDA"/>
						<stop  offset="1" style="stop-color:#B3B2B2"/>
					</linearGradient>
					<path fill="url(#SVGID_6_)" d="M60.494,41.699c0-0.104,0.009-0.211,0.015-0.316L36.796,29.174l0.61,2.711L60.66,43.733
						C60.561,43.069,60.494,42.392,60.494,41.699z"/>
				</g>
			</g>
		</g>
		<g>
			<g>
				<g>
					<path fill-rule="evenodd" clip-rule="evenodd" fill="#FFFFFF" d="M62.607,19.951c-0.536,0.013-1.058-0.072-1.559-0.277
						c-0.423-0.166-0.782-0.425-1.025-0.813c-0.417-0.669-0.373-1.743,0.602-2.361c0.438-0.283,0.928-0.424,1.446-0.48
						c0.66-0.066,1.323-0.042,1.949,0.205c0.241,0.087,0.478,0.207,0.687,0.348c1.024,0.707,1.009,2.199-0.1,2.888
						c-0.503,0.309-1.06,0.448-1.643,0.491C62.846,19.961,62.729,19.951,62.607,19.951z M62.591,19.674
						c0.665,0.006,1.237-0.139,1.675-0.43c0.624-0.405,0.828-1.098,0.613-1.752c-0.16-0.505-0.536-0.803-1.016-0.993
						c-0.545-0.218-1.122-0.268-1.709-0.192c-0.422,0.05-0.83,0.153-1.181,0.394c-0.534,0.365-0.771,0.854-0.69,1.49
						c0.088,0.651,0.505,1.038,1.098,1.269C61.764,19.614,62.17,19.674,62.591,19.674z"/>
					<path fill-rule="evenodd" clip-rule="evenodd" fill="#FFFFFF" d="M54.284,16c1.423,1.077,2.812,2.133,4.24,3.213
						c0-1.078,0-2.095,0-3.147c0.11-0.008,0.208-0.013,0.314-0.017c0,1.3,0,2.582,0,3.912c-1.405-1.074-2.792-2.128-4.229-3.208
						c0,1.065,0,2.09,0,3.131c-0.119,0-0.212,0.008-0.307,0.016C54.243,19.693,54.231,16.375,54.284,16z"/>
					<path fill-rule="evenodd" clip-rule="evenodd" fill="#FFFFFF" d="M47.56,19.714c0-0.1,0-0.177,0-0.284
						c0.192,0.042,0.36,0.079,0.533,0.112c0.74,0.138,1.476,0.207,2.213,0.08c0.22-0.036,0.431-0.113,0.621-0.211
						c0.254-0.124,0.367-0.339,0.34-0.624c-0.017-0.271-0.193-0.414-0.432-0.511c-0.357-0.143-0.745-0.165-1.127-0.217
						c-0.384-0.047-0.761-0.098-1.14-0.168c-0.146-0.023-0.282-0.086-0.407-0.146c-0.655-0.307-0.558-1.155-0.083-1.443
						c0.29-0.177,0.605-0.26,0.943-0.282c0.681-0.057,1.371-0.04,2.056,0.103c0.115,0.023,0.222,0.067,0.337,0.105
						c0,0.099,0,0.188,0,0.293c-0.234-0.059-0.46-0.123-0.692-0.162c-0.676-0.108-1.356-0.158-2.041,0.022
						c-0.14,0.041-0.286,0.098-0.395,0.185c-0.307,0.236-0.266,0.642,0.078,0.828c0.294,0.163,0.624,0.185,0.954,0.232
						c0.417,0.052,0.841,0.095,1.251,0.166c0.188,0.033,0.375,0.095,0.541,0.173c0.333,0.153,0.536,0.405,0.546,0.784
						c0.016,0.381-0.137,0.678-0.464,0.882c-0.33,0.194-0.687,0.278-1.053,0.304c-0.82,0.064-1.63,0.007-2.429-0.171
						C47.663,19.754,47.62,19.74,47.56,19.714z"/>
					<path fill-rule="evenodd" clip-rule="evenodd" fill="#FFFFFF" d="M47.266,19.897c-0.183,0-0.311,0.013-0.442-0.005
						c-0.065-0.014-0.145-0.082-0.184-0.14c-0.183-0.262-0.361-0.523-0.53-0.788c-0.066-0.113-0.148-0.163-0.286-0.159
						c-0.843,0.007-1.684,0.014-2.529-0.004c-0.17,0-0.257,0.064-0.334,0.188c-0.196,0.305-0.401,0.603-0.601,0.902
						c-0.122,0-0.235,0-0.388,0c0.876-1.315,1.761-2.591,2.645-3.9C45.497,17.292,46.367,18.57,47.266,19.897z M43.284,18.515
						c0.987,0.045,2.297,0.026,2.499-0.045c-0.414-0.604-0.815-1.201-1.242-1.827C44.115,17.275,43.71,17.876,43.284,18.515z"/>
					<path fill-rule="evenodd" clip-rule="evenodd" fill="#FFFFFF" d="M41.6,19.321c0,0.106,0,0.188,0,0.274
						c-0.291,0.146-0.608,0.218-0.918,0.271c-0.782,0.134-1.569,0.139-2.345-0.082c-0.297-0.084-0.57-0.223-0.833-0.4
						c-0.967-0.681-0.962-2.176,0.039-2.842c0.366-0.241,0.759-0.4,1.185-0.467c0.877-0.15,1.742-0.096,2.583,0.16
						c0.057,0.022,0.118,0.046,0.179,0.072c0.035,0.015,0.063,0.03,0.112,0.05c0,0.089,0,0.174,0,0.257
						c-0.334-0.091-0.664-0.199-1.005-0.258c-0.69-0.129-1.382-0.139-2.067,0.08c-0.251,0.082-0.485,0.199-0.697,0.367
						c-0.748,0.575-0.756,1.884,0.151,2.462c0.459,0.284,0.961,0.384,1.497,0.409C40.196,19.708,40.898,19.604,41.6,19.321z"/>
					<path fill-rule="evenodd" clip-rule="evenodd" fill="#FFFFFF" d="M53.007,19.883c-0.163,0-0.294,0-0.444,0
						c0-1.274,0-2.535,0-3.818c0.145,0,0.292,0,0.444,0C53.007,17.335,53.007,18.598,53.007,19.883z"/>
				</g>
				<g>
					<path fill-rule="evenodd" clip-rule="evenodd" fill="#FFFFFF" d="M92.647,19.644c0.051,0.11,0.03,0.174-0.051,0.21
						c-0.344,0.121-0.863,0.128-1.148-0.269c-0.106-0.147-0.183-0.324-0.281-0.49c-0.098-0.173-0.187-0.346-0.304-0.505
						c-0.123-0.166-0.297-0.278-0.508-0.283c-0.581-0.015-1.157-0.002-1.759-0.002c0,0.519,0,1.022,0,1.549
						c-0.123,0-0.219,0-0.323,0c0-1.274,0-2.537,0-3.826c0.073-0.004,0.134-0.009,0.194-0.009c0.752,0,1.509,0,2.258,0
						c0.279,0,0.544,0.023,0.814,0.116c0.551,0.2,0.725,0.555,0.725,0.998c0.008,0.459-0.196,0.827-0.702,1.019
						c-0.187,0.069-0.383,0.105-0.579,0.159c0.128,0.147,0.26,0.284,0.368,0.445c0.096,0.157,0.174,0.332,0.27,0.503
						c0.008,0.021,0.021,0.045,0.03,0.07c0.2,0.332,0.425,0.436,0.806,0.367C92.518,19.68,92.582,19.662,92.647,19.644z
						 M88.599,18.045c0.042,0.013,0.06,0.026,0.072,0.026c0.725,0,1.439,0.007,2.16,0c0.172-0.005,0.361-0.047,0.532-0.105
						c0.404-0.14,0.572-0.442,0.548-0.923c-0.028-0.369-0.264-0.649-0.657-0.735c-0.157-0.034-0.321-0.057-0.482-0.057
						c-0.655-0.007-1.306-0.006-1.958-0.006c-0.075,0-0.143,0.013-0.215,0.018C88.599,16.869,88.599,17.456,88.599,18.045z"/>
					<path fill-rule="evenodd" clip-rule="evenodd" fill="#FFFFFF" d="M76.242,17.738c0,0.091,0,0.141,0,0.213
						c-0.982,0-1.955,0-2.914,0c-0.066,0.207-0.073,1.375-0.022,1.698c1.173,0,2.337,0,3.532,0c0,0.08,0,0.14,0,0.206
						c-1.297,0-2.582,0-3.867,0c-0.009,0-0.016-0.006-0.02-0.012c-0.005-0.007-0.018-0.017-0.018-0.024
						c0-1.233-0.003-2.47-0.003-3.701c0-0.025,0.016-0.051,0.026-0.083c1.285,0,2.57,0,3.87,0c0.013,0.051,0.013,0.111,0.019,0.192
						c-1.185,0-2.356,0-3.533,0c-0.047,0.219-0.056,1.182-0.011,1.511C74.265,17.738,75.242,17.738,76.242,17.738z"/>
					<path fill-rule="evenodd" clip-rule="evenodd" fill="#FFFFFF" d="M77.802,15.973c1.433,1.133,2.828,2.244,4.27,3.387
						c0-1.14,0-2.227,0-3.325c0.093,0,0.155,0,0.212,0c0.038,0.196,0.051,3.56,0,3.872c-1.399-1.115-2.798-2.219-4.223-3.349
						c0,1.11,0,2.19,0,3.287c-0.091,0.008-0.162,0.014-0.236,0.023C77.764,19.802,77.747,16.489,77.802,15.973z"/>
					<path fill-rule="evenodd" clip-rule="evenodd" fill="#FFFFFF" d="M95.458,15.962c0.893,1.316,1.752,2.593,2.63,3.896
						c-0.143,0-0.262,0-0.389,0c-0.213-0.324-0.442-0.642-0.645-0.972c-0.091-0.138-0.189-0.204-0.368-0.204
						c-0.925,0.009-1.833,0.006-2.755,0.006c-0.27,0.381-0.527,0.765-0.793,1.165c-0.079,0-0.172,0-0.304,0
						C93.715,18.551,94.578,17.269,95.458,15.962z M96.764,18.458c-0.459-0.674-0.901-1.325-1.353-1.989
						c-0.238,0.35-0.455,0.664-0.672,0.988c-0.204,0.327-0.451,0.644-0.655,1C94.995,18.458,95.866,18.458,96.764,18.458z"/>
					<path fill-rule="evenodd" clip-rule="evenodd" fill="#FFFFFF" d="M71.939,16.559c-0.404-0.191-0.813-0.297-1.235-0.337
						c-0.643-0.071-1.282-0.081-1.903,0.137c-0.412,0.146-0.774,0.368-1.013,0.748c-0.447,0.707-0.251,1.665,0.436,2.142
						c0.398,0.286,0.866,0.412,1.342,0.446c0.621,0.054,1.242,0.013,1.857-0.156c0.166-0.049,0.324-0.111,0.487-0.166
						c0.052,0.188,0.058,0.202-0.091,0.246c-0.303,0.09-0.61,0.195-0.926,0.24c-0.383,0.051-0.769,0.063-1.154,0.063
						c-0.454,0-0.888-0.096-1.308-0.27c-0.316-0.126-0.589-0.301-0.809-0.546c-0.656-0.729-0.581-1.988,0.319-2.597
						c0.357-0.24,0.75-0.397,1.165-0.462c0.898-0.149,1.794-0.085,2.663,0.205C71.948,16.311,71.941,16.313,71.939,16.559z"/>
					<path fill-rule="evenodd" clip-rule="evenodd" fill="#FFFFFF" d="M85.465,16.231c0,1.219,0,2.416,0,3.623
						c-0.123,0-0.223,0-0.336,0c0-1.195,0-2.396,0-3.611c-0.363-0.021-0.697-0.014-1.031-0.016c-0.342,0-0.68,0-1.038,0
						c-0.01-0.062-0.01-0.117-0.01-0.191c1.501,0,2.968,0,4.478,0c0,0.064,0,0.115,0,0.196
						C86.834,16.231,86.165,16.231,85.465,16.231z"/>
					<path fill-rule="evenodd" clip-rule="evenodd" fill="#FFFFFF" d="M98.803,19.854c0-1.284,0-2.546,0-3.82c0.106,0,0.191,0,0.3,0
						c0.063,0.187,0.025,0.381,0.034,0.576c0.002,0.208,0,0.412,0,0.62c0,0.2,0,0.396,0,0.594c0,0.194,0,0.396,0,0.596
						c0,0.202,0,0.411,0,0.616c0,0.195,0,0.393,0,0.611c1.131,0,2.229,0,3.36,0c0,0.08,0,0.14,0,0.206
						C101.267,19.854,100.046,19.854,98.803,19.854z"/>
				</g>
				<g>
					<path fill-rule="evenodd" clip-rule="evenodd" fill="#FFFFFF" d="M104.66,19.798c0-1.275,0-2.539,0-3.821
						c0.06-0.005,0.098-0.017,0.141-0.017c0.837,0,1.671-0.009,2.5,0.017c0.572,0.018,1.105,0.181,1.567,0.511
						c1.001,0.723,0.995,2.125-0.023,2.832c-0.476,0.328-1.025,0.473-1.599,0.493c-0.825,0.029-1.671,0.012-2.509,0.012
						C104.72,19.826,104.705,19.813,104.66,19.798z M105.007,16.217c0,1.123,0,2.234,0,3.349c0.047,0.013,0.066,0.02,0.1,0.02
						c0.65,0,1.318,0.017,1.973-0.007c0.413-0.006,0.81-0.086,1.178-0.25c0.61-0.275,0.946-0.738,0.959-1.389
						c0.019-0.646-0.283-1.121-0.865-1.431c-0.4-0.207-0.83-0.291-1.271-0.3c-0.627-0.014-1.267-0.007-1.901-0.007
						C105.128,16.201,105.073,16.21,105.007,16.217z"/>
					<path fill-rule="evenodd" clip-rule="evenodd" fill="#FFFFFF" d="M110.625,15.973c1.297,0,2.587,0,3.895,0
						c0,0.076,0,0.132,0,0.218c-1.171,0-2.324,0-3.536,0c-0.004,0.492,0,0.959,0,1.456c0.112,0.011,0.204,0.021,0.31,0.021
						c0.772,0,1.544,0,2.312,0c0.07,0,0.138,0,0.193,0c0.155,0.003,0.172,0.093,0.14,0.246c-0.969,0-1.935,0-2.938,0
						c-0.03,0.567-0.017,1.101-0.017,1.672c0.399,0,0.782,0.006,1.161,0.01c0.396,0,0.793,0,1.187,0c0.387,0,0.772,0,1.182,0
						c0.006,0.072,0.008,0.133,0.025,0.215c-1.322,0-2.606,0-3.914,0C110.625,18.533,110.625,17.265,110.625,15.973z"/>
				</g>
			</g>
			<g>
				<path fill-rule="evenodd" clip-rule="evenodd" fill="#FFFFFF" d="M50.209,22.291c0.871-0.045,1.73,0.063,2.526,0.414
					c0.353,0.155,0.703,0.34,1.002,0.569c1.258,0.967,1.266,2.777,0.041,3.787c-0.61,0.508-1.334,0.764-2.105,0.904
					c-1.226,0.22-2.452,0.202-3.663-0.162c-0.36-0.114-0.726-0.256-1.056-0.445c-1.8-1.049-1.792-3.298,0-4.365
					c0.727-0.427,1.522-0.621,2.35-0.697C49.606,22.267,49.905,22.291,50.209,22.291z M50.14,27.185
					c0.581,0.026,1.132-0.079,1.644-0.334c0.437-0.218,0.783-0.531,0.942-0.997c0.345-0.99,0-1.871-0.902-2.33
					c-1.103-0.557-2.241-0.533-3.346-0.001c-0.718,0.343-1.053,0.957-1.027,1.727c0.025,0.806,0.479,1.353,1.208,1.671
					C49.126,27.128,49.632,27.211,50.14,27.185z"/>
				<path fill-rule="evenodd" clip-rule="evenodd" fill="#FFFFFF" d="M105.137,22.491c0,0.405,0,0.746,0,1.122
					c-1.08-0.43-2.173-0.452-3.266-0.387c-0.276,0.02-0.557,0.089-0.825,0.175c-0.202,0.061-0.375,0.202-0.37,0.446
					c0.004,0.266,0.217,0.355,0.413,0.395c0.323,0.065,0.629,0.104,0.948,0.13c0.795,0.063,1.582,0.071,2.356,0.3
					c0.162,0.051,0.327,0.12,0.485,0.19c1.114,0.52,1.046,2.058,0.176,2.635c-0.397,0.264-0.853,0.437-1.325,0.481
					c-0.765,0.069-1.543,0.089-2.317,0.094c-0.387,0.008-0.77-0.051-1.152-0.103c-0.4-0.058-0.797-0.141-1.216-0.226
					c0-0.357,0-0.692,0-1.048c0.295,0.068,0.583,0.129,0.863,0.199c1.127,0.262,2.273,0.278,3.415,0.162
					c0.226-0.028,0.442-0.113,0.655-0.201c0.204-0.086,0.34-0.241,0.325-0.486c-0.019-0.229-0.185-0.338-0.376-0.383
					c-0.34-0.076-0.689-0.124-1.04-0.163c-0.699-0.079-1.401-0.127-2.098-0.209c-0.188-0.025-0.375-0.099-0.557-0.163
					c-0.634-0.237-0.961-0.702-0.978-1.344c-0.034-0.633,0.221-1.161,0.825-1.449c0.345-0.166,0.723-0.3,1.093-0.348
					c1.021-0.142,2.042-0.086,3.066,0.042C104.52,22.387,104.822,22.445,105.137,22.491z"/>
				<path fill-rule="evenodd" clip-rule="evenodd" fill="#FFFFFF" d="M93.949,27.076c1.488,0,2.913,0,4.375,0
					c0,0.303,0,0.587,0,0.897c-2.02,0-4.036,0-6.081,0c0-1.877,0-3.737,0-5.593c0.385-0.089,5.294-0.114,6.085-0.037
					c0,0.271,0,0.537,0,0.846c-0.468,0.087-0.948,0.028-1.446,0.036c-0.472,0.01-0.944,0.002-1.425,0.002c-0.495,0-0.982,0-1.501,0
					c0,0.483,0,0.925,0,1.416c1.135,0,2.275,0,3.455,0c0,0.316,0,0.579,0,0.908c-1.121,0.054-2.265-0.005-3.459,0.035
					C93.915,26.07,93.923,26.544,93.949,27.076z"/>
				<path fill-rule="evenodd" clip-rule="evenodd" fill="#FFFFFF" d="M73.054,26.685c0,0.315,0,0.589,0,0.875
					c-0.345,0.22-0.746,0.298-1.145,0.375c-1.443,0.281-2.874,0.235-4.265-0.25c-0.407-0.14-0.806-0.356-1.151-0.619
					c-1.239-0.943-1.288-2.67-0.124-3.707c0.518-0.463,1.147-0.73,1.82-0.88c1.514-0.329,3.009-0.329,4.491,0.123
					c0.12,0.033,0.229,0.085,0.373,0.135c0,0.324,0,0.649,0,0.999c-0.192-0.073-0.357-0.142-0.515-0.201
					c-1.176-0.432-2.374-0.521-3.571-0.181c-0.38,0.106-0.756,0.318-1.047,0.574c-0.822,0.714-0.752,1.911,0.107,2.579
					c0.571,0.454,1.249,0.62,1.965,0.648C70.958,27.198,71.402,27.219,73.054,26.685z"/>
				<path fill-rule="evenodd" clip-rule="evenodd" fill="#FFFFFF" d="M80.651,22.246c1.365,1.936,2.691,3.819,4.04,5.737
					c-0.663,0-1.284,0-1.947,0c-0.16-0.23-0.349-0.475-0.517-0.731c-0.1-0.157-0.21-0.211-0.389-0.211
					c-1.042,0.003-2.082,0.004-3.117,0c-0.181,0-0.298,0.066-0.391,0.211c-0.158,0.246-0.332,0.483-0.502,0.722
					c-0.391,0-0.774,0-1.229,0C77.958,26.055,79.273,24.189,80.651,22.246z M80.286,24.419c-0.411,0.593-0.776,1.122-1.165,1.679
					c0.799,0,1.531,0,2.326,0C81.051,25.536,80.689,25.008,80.286,24.419z"/>
				<path fill-rule="evenodd" clip-rule="evenodd" fill="#FFFFFF" d="M55.835,22.333c1.984,0,3.959,0,5.978,0
					c0,0.286,0,0.555,0,0.884c-0.461,0.002-0.928,0.002-1.401,0.01c-0.47,0.002-0.951,0-1.423,0c-0.479,0-0.954,0-1.458,0
					c0,0.591,0,1.153,0,1.753c0.573,0.083,1.15,0.023,1.726,0.036c0.556,0.013,1.125,0.001,1.707,0.001c0,0.322,0,0.588,0,0.914
					c-1.15,0-2.291,0-3.458,0c0,0.701,0,1.354,0,2.037c-0.573,0-1.112,0-1.652,0C55.763,27.602,55.746,22.916,55.835,22.333z"/>
				<path fill-rule="evenodd" clip-rule="evenodd" fill="#FFFFFF" d="M85.35,27.974c0-1.893,0-3.756,0-5.64c0.57,0,1.105,0,1.688,0
					c0,1.574,0,3.125,0,4.727c1.42,0.041,2.811-0.004,4.231,0.026c0,0.304,0,0.588,0,0.888
					C89.305,27.974,87.355,27.974,85.35,27.974z"/>
				<path fill-rule="evenodd" clip-rule="evenodd" fill="#FFFFFF" d="M74.235,27.969c0-1.888,0-3.752,0-5.636
					c0.539,0,1.071,0,1.598,0c0.106,0.354,0.151,4.464,0.049,5.636C75.357,27.969,74.817,27.969,74.235,27.969z"/>
				<path fill-rule="evenodd" clip-rule="evenodd" fill="#FFFFFF" d="M64.441,27.983c-0.559,0-1.083,0-1.64,0
					c0-1.887,0-3.756,0-5.649c0.548,0,1.068,0,1.592,0C64.498,22.688,64.544,26.939,64.441,27.983z"/>
			</g>
		</g>
		<g>
			<path fill-rule="evenodd" clip-rule="evenodd" fill="#FFFFFF" d="M84.512,93.813c-0.861-0.408-1.76-0.538-2.683-0.493
				c-0.655,0.025-1.289,0.149-1.816,0.551c-0.944,0.702-0.878,2.022,0.128,2.649c0.468,0.293,0.995,0.423,1.558,0.458
				c1.027,0.062,1.48-0.013,2.822-0.413c0,0.191,0,0.378,0,0.561c-0.009,0.036-0.085,0.081-0.132,0.094
				c-0.536,0.225-1.105,0.332-1.697,0.37c-0.94,0.062-1.877,0.021-2.785-0.292c-0.651-0.236-1.216-0.581-1.552-1.188
				c-0.553-1.003-0.16-2.203,0.889-2.798c0.6-0.344,1.267-0.508,1.948-0.58c0.901-0.087,1.805-0.049,2.688,0.185
				c0.667,0.17,0.667,0.17,0.642,0.813C84.521,93.75,84.521,93.767,84.512,93.813z"/>
			<path fill-rule="evenodd" clip-rule="evenodd" fill="#FFFFFF" d="M78.193,97.532c-0.446,0-0.855,0.006-1.263-0.002
				c-0.046,0-0.106-0.058-0.145-0.104c-0.187-0.259-0.366-0.529-0.563-0.793c-0.04-0.055-0.134-0.104-0.202-0.104
				c-1.025-0.009-2.051-0.009-3.088,0c-0.059,0-0.141,0.049-0.179,0.1c-0.198,0.26-0.375,0.527-0.558,0.797
				c-0.064,0.087-0.121,0.117-0.219,0.113c-0.229-0.008-0.457-0.006-0.73-0.006c1.175-1.625,2.313-3.219,3.479-4.841
				C75.88,94.303,77.02,95.908,78.193,97.532z M75.718,95.893c-0.421-0.587-0.82-1.161-1.231-1.744
				c-0.421,0.585-0.825,1.157-1.237,1.744C74.086,95.893,74.881,95.893,75.718,95.893z"/>
			<path fill-rule="evenodd" clip-rule="evenodd" fill="#FFFFFF" d="M67.969,95.053c1.083,0,2.157,0,3.236,0
				c0,0.202,0,0.393,0,0.608c-1.079,0-2.148,0-3.245,0c0,0.636,0,1.246,0,1.869c-0.396,0-0.772,0-1.166,0c0-1.593,0-3.17,0-4.767
				c1.72,0,3.433,0,5.153,0c0,0.2,0,0.391,0,0.608c-1.319,0-2.643,0-3.979,0C67.969,93.933,67.969,94.477,67.969,95.053z"/>
		</g>
		<g>
			<g>
				<g>
					<path fill="#FFFFFF" d="M76.933,40.427c-0.33-2.471-0.844-4.047-1.408-4.047c-0.576,0-1.091,1.577-1.423,4.047
						c0.445-0.19,0.917-0.299,1.423-0.299C76.021,40.128,76.492,40.236,76.933,40.427z"/>
					<path fill="#FFFFFF" d="M76.675,55.698c0.408-1.995,0.672-5.029,0.672-8.43c0-1.972-0.098-3.815-0.243-5.408
						c-0.474-0.325-1.003-0.51-1.58-0.51c-0.583,0-1.127,0.185-1.586,0.51c-0.153,1.592-0.243,3.436-0.243,5.408
						c0,3.401,0.259,6.435,0.672,8.43c0.364-0.125,0.747-0.189,1.157-0.189C75.922,55.509,76.31,55.574,76.675,55.698z"/>
					<path fill="#FFFFFF" d="M91.252,68.656c-0.064,0.534-0.2,1.067-0.449,1.578c-0.228,0.506-0.538,0.936-0.891,1.301
						c2.049,0.825,3.504,1.055,3.78,0.472C93.957,71.425,92.985,70.162,91.252,68.656z"/>
					<path fill="#FFFFFF" d="M86.196,65.008c-2.606-1.604-5.06-2.766-6.778-3.302c-0.245,0.844-0.689,1.597-1.276,2.146
						c1.316,1.386,3.602,3.17,6.33,4.856c1.514,0.923,2.975,1.709,4.259,2.309c0.472-0.313,0.87-0.765,1.152-1.36
						c0.268-0.585,0.368-1.216,0.34-1.844C89.08,66.9,87.71,65.943,86.196,65.008z"/>
					<path fill="#FFFFFF" d="M60.466,70.361c-0.249-0.493-0.41-1.027-0.489-1.567c-1.687,1.573-2.627,2.877-2.346,3.442
						c0.292,0.565,1.745,0.289,3.762-0.617C61.033,71.271,60.714,70.854,60.466,70.361z"/>
					<path fill="#FFFFFF" d="M71.556,61.438c-1.708,0.597-4.097,1.848-6.627,3.536c-1.485,0.982-2.824,1.992-3.953,2.938
						c-0.013,0.623,0.112,1.254,0.405,1.833c0.293,0.577,0.704,1.019,1.177,1.314c1.28-0.643,2.712-1.472,4.193-2.462
						c2.561-1.705,4.714-3.479,6.012-4.882C72.187,63.115,71.757,62.327,71.556,61.438z"/>
				</g>
			</g>
		</g>
		<polygon fill="#FAC200" points="75.519,56.828 76.641,59.104 79.152,59.466 77.336,61.236 77.764,63.736 75.519,62.558 
			73.274,63.736 73.704,61.236 71.888,59.466 74.396,59.104 		"/>
	</g>
</g>
</svg>
